<?xml version="1.0" encoding="utf-8"?><svg version="1.1" id="Layer_1" xmlns="http://www.w3.org/2000/svg" xmlns:xlink="http://www.w3.org/1999/xlink" x="0px" y="0px" viewBox="0 0 122.88 95.51" style="fill: #5eaaa8" xml:space="preserve"><style type="text/css">.st0{fill-rule:evenodd;clip-rule:evenodd;}</style><g><path class="st0" d="M8.32,0h106.24c4.58,0,8.32,3.74,8.32,8.32v78.87c0,4.57-3.74,8.32-8.32,8.32H8.32C3.74,95.51,0,91.77,0,87.19 V8.32C0,3.74,3.74,0,8.32,0L8.32,0z M12.6,26.42h96.77v43.73H12.6V26.42L12.6,26.42z M44.06,41.48h3.19l7.8-8.74 c0.69-0.78,1.89-0.85,2.67-0.15v0c0.78,0.69,0.84,1.9,0.15,2.67l-5.55,6.22h17.01l-5.55-6.22c-0.69-0.78-0.63-1.98,0.15-2.67h0 c0.78-0.69,1.98-0.63,2.67,0.15l7.8,8.74l3.05,0l0.04,0h2.86c0.64,0,1.17,0.52,1.17,1.17v3.29c0,0.64-0.52,1.17-1.17,1.17h-2.48 l-1.27,16.07c-0.03,0.44-0.37,0.81-0.81,0.81H45.72c-0.44,0-0.77-0.37-0.81-0.81l-1.28-16.07h-2.48c-0.64,0-1.17-0.52-1.17-1.17 v-3.29c0-0.64,0.52-1.17,1.17-1.17h2.86L44.06,41.48L44.06,41.48z M66.25,47.74h3.69v10.66l-3.69,0V47.74L66.25,47.74z M59.07,47.74h3.69v10.66l-3.69,0V47.74L59.07,47.74z M51.9,47.74h3.69v10.66l-3.69,0V47.74L51.9,47.74z M66.87,84.74 c-1.78,0-3.22-1.57-3.22-3.5c0-1.94,1.44-3.5,3.22-3.5h39.65c1.78,0,3.22,1.57,3.22,3.5c0,1.93-1.44,3.5-3.22,3.5H66.87 L66.87,84.74z M14.96,84.74c-1.76,0-3.19-1.57-3.19-3.5c0-1.94,1.43-3.5,3.19-3.5h36.76c1.76,0,3.19,1.57,3.19,3.5 c0,1.93-1.43,3.5-3.19,3.5H14.96L14.96,84.74z M117.97,20.1H5.29V88c0,1.28,1.02,2.3,2.3,2.3h108.04c1.28,0,2.3-1.03,2.3-2.3V20.1 H117.97L117.97,20.1z M106.64,7.22c2.27,0,4.11,1.84,4.11,4.11s-1.84,4.11-4.11,4.11c-2.27,0-4.11-1.84-4.11-4.11 S104.38,7.22,106.64,7.22L106.64,7.22z M78.8,7.22c2.27,0,4.11,1.84,4.11,4.11s-1.84,4.11-4.11,4.11c-2.27,0-4.11-1.84-4.11-4.11 S76.53,7.22,78.8,7.22L78.8,7.22z M92.72,7.22c2.27,0,4.11,1.84,4.11,4.11s-1.84,4.11-4.11,4.11c-2.27,0-4.11-1.84-4.11-4.11 S90.45,7.22,92.72,7.22L92.72,7.22z"/></g></svg>